<svg width="513" height="295" viewBox="0 0 513 295" fill="none" xmlns="http://www.w3.org/2000/svg">
<path d="M253 0H227L130 97V164V164.5L273.5 21L253 0Z" fill="#D9D9D9"/>
<path d="M227.5 67H252.905L350 164V97L273.5 21L227.5 67Z" fill="#939393"/>
<path d="M214 80.5L227.5 67H253L266 80.5V235H214V80.5Z" fill="#EDEBEB"/>
<path d="M214 80.5L222 88L281.5 28.5L273.5 21L214 80.5Z" fill="black" fill-opacity="0.5"/>
<path d="M214 80.5V88H222L214 80.5Z" fill="black" fill-opacity="0.5"/>
<path d="M214 88H222L214 96V88Z" fill="black" fill-opacity="0.5"/>
<path d="M26.718 277V233.492H7.3V225.9H54.458V233.492H34.602V277H26.718ZM75.0223 277V225.9H117.435V233.492H82.9063V269.408H117.435V277H75.0223ZM79.3293 254.589V246.997H113.42V254.589H79.3293ZM167.94 277.73C163.852 277.73 160.008 277.122 156.406 275.905C152.854 274.64 149.715 272.863 146.989 270.576C144.313 268.24 142.22 265.466 140.711 262.254C139.203 258.993 138.448 255.392 138.448 251.45C138.448 247.703 139.227 244.247 140.784 241.084C142.39 237.921 144.556 235.171 147.281 232.835C150.007 230.499 153.146 228.698 156.698 227.433C160.251 226.119 163.998 225.462 167.94 225.462C171.25 225.462 174.413 225.9 177.43 226.776C180.448 227.603 183.173 228.674 185.606 229.988C188.088 231.253 190.059 232.592 191.519 234.003L186.847 240.646C185.095 239.186 183.222 237.896 181.226 236.777C179.231 235.658 177.065 234.782 174.729 234.149C172.442 233.516 169.936 233.2 167.21 233.2C164.631 233.2 162.1 233.638 159.618 234.514C157.185 235.341 154.971 236.558 152.975 238.164C150.98 239.721 149.398 241.644 148.23 243.931C147.062 246.17 146.478 248.676 146.478 251.45C146.478 254.516 147.087 257.217 148.303 259.553C149.52 261.84 151.175 263.763 153.267 265.32C155.36 266.877 157.72 268.07 160.348 268.897C162.976 269.676 165.702 270.065 168.524 270.065C171.444 270.065 174.048 269.7 176.335 268.97C178.623 268.191 180.667 267.242 182.467 266.123C184.268 265.004 185.898 263.909 187.358 262.838L191.154 269.408C189.792 270.527 187.918 271.744 185.533 273.058C183.197 274.372 180.521 275.491 177.503 276.416C174.535 277.292 171.347 277.73 167.94 277.73Z" fill="#D9D9D9"/>
<path d="M257.617 277V225.9H265.501V277H257.617ZM214.036 277V225.9H221.92V277H214.036ZM217.467 255.611L217.54 248.019H261.121V255.611H217.467Z" fill="#EDEBEB"/>
<path d="M319.035 277.73C314.509 277.73 310.372 277.073 306.625 275.759C302.877 274.396 299.617 272.523 296.843 270.138C294.069 267.705 291.927 264.906 290.419 261.743C288.91 258.531 288.156 255.1 288.156 251.45C288.156 247.8 288.91 244.393 290.419 241.23C291.927 238.018 294.069 235.22 296.843 232.835C299.617 230.402 302.877 228.528 306.625 227.214C310.372 225.851 314.509 225.17 319.035 225.17C323.512 225.17 327.624 225.851 331.372 227.214C335.119 228.528 338.38 230.402 341.154 232.835C343.928 235.22 346.069 238.018 347.578 241.23C349.135 244.393 349.914 247.8 349.914 251.45C349.914 255.1 349.135 258.531 347.578 261.743C346.069 264.906 343.928 267.705 341.154 270.138C338.38 272.523 335.119 274.396 331.372 275.759C327.624 277.073 323.512 277.73 319.035 277.73ZM319.035 270.065C322.393 270.065 325.459 269.603 328.233 268.678C331.007 267.705 333.416 266.391 335.46 264.736C337.504 263.033 339.085 261.062 340.205 258.823C341.324 256.536 341.884 254.078 341.884 251.45C341.884 248.822 341.324 246.389 340.205 244.15C339.085 241.863 337.504 239.892 335.46 238.237C333.416 236.534 331.007 235.22 328.233 234.295C325.459 233.322 322.393 232.835 319.035 232.835C315.677 232.835 312.586 233.322 309.764 234.295C306.99 235.22 304.581 236.534 302.537 238.237C300.493 239.892 298.911 241.863 297.792 244.15C296.721 246.389 296.186 248.822 296.186 251.45C296.186 254.078 296.721 256.536 297.792 258.823C298.911 261.062 300.493 263.033 302.537 264.736C304.581 266.391 306.99 267.705 309.764 268.678C312.586 269.603 315.677 270.065 319.035 270.065ZM372.512 277V225.9H380.25L403.537 254.735H400.763L424.05 225.9H431.788V277H423.904V255.319C423.904 251.28 424.001 247.484 424.196 243.931C424.39 240.378 424.78 236.753 425.364 233.054L426.167 236.047L404.559 262.327H399.741L378.133 236.047L378.936 233.054C379.52 236.753 379.909 240.378 380.104 243.931C380.298 247.484 380.396 251.28 380.396 255.319V277H372.512ZM458.344 277V225.9H500.757V233.492H466.228V269.408H500.757V277H458.344ZM462.651 254.589V246.997H496.742V254.589H462.651Z" fill="#939393"/>
</svg>
